<mxfile host="app.diagrams.net" modified="2023-05-14T10:22:39.207Z" agent="Mozilla/5.0 (Windows NT 10.0; Win64; x64) AppleWebKit/537.36 (KHTML, like Gecko) Chrome/113.0.0.0 Safari/537.36" etag="R4op-aAcWLiUPAtCATHm" version="21.2.1" type="device">
  <diagram name="Сторінка-1" id="Zey2xdifgLzlZL7PSOfl">
    <mxGraphModel dx="420" dy="220" grid="1" gridSize="10" guides="1" tooltips="1" connect="1" arrows="1" fold="1" page="1" pageScale="1" pageWidth="827" pageHeight="1169" math="0" shadow="0">
      <root>
        <mxCell id="0" />
        <mxCell id="1" parent="0" />
        <mxCell id="fYBOC8DC2SJjyDn_tibU-2" value="Студент" style="rounded=0;whiteSpace=wrap;html=1;" vertex="1" parent="1">
          <mxGeometry x="320" width="120" height="60" as="geometry" />
        </mxCell>
        <mxCell id="fYBOC8DC2SJjyDn_tibU-3" value="Здано іспит" style="rounded=0;whiteSpace=wrap;html=1;" vertex="1" parent="1">
          <mxGeometry x="320" y="410" width="120" height="60" as="geometry" />
        </mxCell>
        <mxCell id="fYBOC8DC2SJjyDn_tibU-5" value="Лекційні заняття" style="rounded=0;whiteSpace=wrap;html=1;" vertex="1" parent="1">
          <mxGeometry x="320" y="80" width="120" height="60" as="geometry" />
        </mxCell>
        <mxCell id="fYBOC8DC2SJjyDn_tibU-6" value="Проведення&amp;nbsp; лабораторних" style="rounded=0;whiteSpace=wrap;html=1;" vertex="1" parent="1">
          <mxGeometry x="320" y="160" width="120" height="60" as="geometry" />
        </mxCell>
        <mxCell id="fYBOC8DC2SJjyDn_tibU-7" value="Виконання 2 лабораторних завдань студентом&amp;nbsp;" style="rounded=0;whiteSpace=wrap;html=1;" vertex="1" parent="1">
          <mxGeometry x="160" y="160" width="120" height="60" as="geometry" />
        </mxCell>
        <mxCell id="fYBOC8DC2SJjyDn_tibU-8" value="Довиконання 5&amp;nbsp; лабораторних робіт" style="rounded=0;whiteSpace=wrap;html=1;" vertex="1" parent="1">
          <mxGeometry x="480" y="160" width="120" height="60" as="geometry" />
        </mxCell>
        <mxCell id="fYBOC8DC2SJjyDn_tibU-9" value="Отримання допуску до іспиту" style="rounded=0;whiteSpace=wrap;html=1;" vertex="1" parent="1">
          <mxGeometry x="320" y="240" width="120" height="60" as="geometry" />
        </mxCell>
        <mxCell id="fYBOC8DC2SJjyDn_tibU-10" value="Підготовка до іспиту" style="rounded=0;whiteSpace=wrap;html=1;" vertex="1" parent="1">
          <mxGeometry x="320" y="320" width="120" height="60" as="geometry" />
        </mxCell>
        <mxCell id="fYBOC8DC2SJjyDn_tibU-11" value="" style="endArrow=classic;html=1;rounded=0;exitX=0.5;exitY=1;exitDx=0;exitDy=0;" edge="1" parent="1" source="fYBOC8DC2SJjyDn_tibU-2" target="fYBOC8DC2SJjyDn_tibU-5">
          <mxGeometry width="50" height="50" relative="1" as="geometry">
            <mxPoint x="390" y="300" as="sourcePoint" />
            <mxPoint x="440" y="250" as="targetPoint" />
          </mxGeometry>
        </mxCell>
        <mxCell id="fYBOC8DC2SJjyDn_tibU-12" value="" style="endArrow=classic;html=1;rounded=0;exitX=0.5;exitY=1;exitDx=0;exitDy=0;entryX=0.5;entryY=0;entryDx=0;entryDy=0;" edge="1" parent="1" source="fYBOC8DC2SJjyDn_tibU-5" target="fYBOC8DC2SJjyDn_tibU-6">
          <mxGeometry width="50" height="50" relative="1" as="geometry">
            <mxPoint x="390" y="70" as="sourcePoint" />
            <mxPoint x="390" y="90" as="targetPoint" />
          </mxGeometry>
        </mxCell>
        <mxCell id="fYBOC8DC2SJjyDn_tibU-13" value="" style="endArrow=classic;html=1;rounded=0;exitX=0.5;exitY=1;exitDx=0;exitDy=0;entryX=0.5;entryY=0;entryDx=0;entryDy=0;" edge="1" parent="1">
          <mxGeometry width="50" height="50" relative="1" as="geometry">
            <mxPoint x="379.86" y="220" as="sourcePoint" />
            <mxPoint x="379.86" y="240" as="targetPoint" />
          </mxGeometry>
        </mxCell>
        <mxCell id="fYBOC8DC2SJjyDn_tibU-14" value="" style="endArrow=classic;html=1;rounded=0;exitX=0.5;exitY=1;exitDx=0;exitDy=0;entryX=0.5;entryY=0;entryDx=0;entryDy=0;" edge="1" parent="1">
          <mxGeometry width="50" height="50" relative="1" as="geometry">
            <mxPoint x="379.86" y="300" as="sourcePoint" />
            <mxPoint x="379.86" y="320" as="targetPoint" />
          </mxGeometry>
        </mxCell>
        <mxCell id="fYBOC8DC2SJjyDn_tibU-15" value="" style="endArrow=classic;html=1;rounded=0;exitX=0.5;exitY=1;exitDx=0;exitDy=0;entryX=0.5;entryY=0;entryDx=0;entryDy=0;" edge="1" parent="1" target="fYBOC8DC2SJjyDn_tibU-3">
          <mxGeometry width="50" height="50" relative="1" as="geometry">
            <mxPoint x="379.86" y="380" as="sourcePoint" />
            <mxPoint x="379.86" y="400" as="targetPoint" />
          </mxGeometry>
        </mxCell>
        <mxCell id="fYBOC8DC2SJjyDn_tibU-17" value="" style="endArrow=classic;startArrow=classic;html=1;rounded=0;exitX=1;exitY=0.5;exitDx=0;exitDy=0;entryX=0;entryY=0.5;entryDx=0;entryDy=0;" edge="1" parent="1" source="fYBOC8DC2SJjyDn_tibU-7" target="fYBOC8DC2SJjyDn_tibU-6">
          <mxGeometry width="50" height="50" relative="1" as="geometry">
            <mxPoint x="380" y="220" as="sourcePoint" />
            <mxPoint x="430" y="170" as="targetPoint" />
          </mxGeometry>
        </mxCell>
        <mxCell id="fYBOC8DC2SJjyDn_tibU-18" value="" style="endArrow=classic;html=1;rounded=0;entryX=0;entryY=0.5;entryDx=0;entryDy=0;" edge="1" parent="1" source="fYBOC8DC2SJjyDn_tibU-6" target="fYBOC8DC2SJjyDn_tibU-8">
          <mxGeometry width="50" height="50" relative="1" as="geometry">
            <mxPoint x="380" y="220" as="sourcePoint" />
            <mxPoint x="430" y="170" as="targetPoint" />
          </mxGeometry>
        </mxCell>
        <mxCell id="fYBOC8DC2SJjyDn_tibU-19" value="" style="endArrow=classic;html=1;rounded=0;" edge="1" parent="1" target="fYBOC8DC2SJjyDn_tibU-20">
          <mxGeometry width="50" height="50" relative="1" as="geometry">
            <mxPoint x="440" y="110" as="sourcePoint" />
            <mxPoint x="490" y="110" as="targetPoint" />
          </mxGeometry>
        </mxCell>
        <mxCell id="fYBOC8DC2SJjyDn_tibU-20" value="Підготовка до опитування матеріалу" style="rounded=0;whiteSpace=wrap;html=1;" vertex="1" parent="1">
          <mxGeometry x="480" y="80" width="120" height="60" as="geometry" />
        </mxCell>
      </root>
    </mxGraphModel>
  </diagram>
</mxfile>
